<?xml version="1.0" encoding="UTF-8" standalone="no"?>
<svg
   xmlns:dc="http://purl.org/dc/elements/1.1/"
   xmlns:cc="http://web.resource.org/cc/"
   xmlns:rdf="http://www.w3.org/1999/02/22-rdf-syntax-ns#"
   xmlns:svg="http://www.w3.org/2000/svg"
   xmlns="http://www.w3.org/2000/svg"
   xmlns:sodipodi="http://sodipodi.sourceforge.net/DTD/sodipodi-0.dtd"
   xmlns:inkscape="http://www.inkscape.org/namespaces/inkscape"
   version="1.1"
   width="351"
   height="396"
   viewBox="-0.75 -0.676 351 396"
   enable-background="new -0.75 -0.676 351 396"
   xml:space="preserve"
   id="svg1930"
   sodipodi:version="0.32"
   inkscape:version="0.44.1"
   sodipodi:docname="Bowl_hygeia_darkred.svg"
   sodipodi:docbase="C:\Documents and Settings\All Users\Documents\just creations"><metadata
   id="metadata1951"><rdf:RDF><cc:Work
       rdf:about=""><dc:format>image/svg+xml</dc:format><dc:type
         rdf:resource="http://purl.org/dc/dcmitype/StillImage" /></cc:Work></rdf:RDF></metadata><sodipodi:namedview
   inkscape:window-height="934"
   inkscape:window-width="1425"
   inkscape:pageshadow="2"
   inkscape:pageopacity="0.0"
   guidetolerance="10.0"
   gridtolerance="10.0"
   objecttolerance="10.0"
   borderopacity="1.0"
   bordercolor="#666666"
   pagecolor="#ffffff"
   id="base"
   showguides="true"
   inkscape:guide-bbox="true"
   inkscape:zoom="1.5133394"
   inkscape:cx="122.9835"
   inkscape:cy="173.9336"
   inkscape:window-x="96"
   inkscape:window-y="119"
   inkscape:current-layer="svg1930" />
<defs
   id="defs1932">
</defs>

<path
   style="fill:#600;fill-rule:evenodd;stroke:none"
   clip-rule="evenodd"
   d="M 179.02411,45.925627 C 175.62289,30.832944 162.22797,20.004139 141.9717,23.836688 C 125.55368,26.943391 115.79179,49.104534 121.30785,67.302018 C 137.66982,121.27693 244.42922,89.394757 253.12893,150.66995 C 256.60711,175.16539 246.27804,194.98748 235.31527,207.67366 C 223.13168,221.77258 204.60965,224.72199 183.883,228.66035 L 183.43954,215.42124 C 192.4409,213.11852 194.50615,211.91076 201.73517,206.87068 C 215.42461,197.32731 231.9359,171.24639 223.20199,148.53231 C 219.13287,137.94957 204.11144,132.40881 193.27504,128.58101 C 180.97459,124.23638 167.4229,122.58042 154.08499,117.89281 C 128.42571,108.87578 100.18323,88.772466 102.78164,51.625998 C 104.52691,26.670723 128.29746,7.2913612 157.64772,10.298307 C 171.88154,11.756652 182.40253,19.335295 187.57467,30.249606 C 189.39783,34.097357 189.20117,39.258093 191.84994,43.787987 C 194.41796,48.180123 199.37538,46.913691 201.82559,53.051091 C 204.2682,59.170439 198.60488,87.019602 191.84994,88.67841 C 183.00582,90.850252 169.08171,67.407475 169.76101,58.751462 C 170.35004,51.246923 175.63429,51.307727 179.02411,45.925627 z "
   id="path1934"
   sodipodi:nodetypes="csccsccsssccssssssc" />
<path
   style="fill:#600;fill-rule:evenodd;stroke:none"
   clip-rule="evenodd"
   d="M 163.3014,217.40401 L 163.39442,231.34658 C 143.08632,235.28517 138.20145,255.17593 146.95952,264.67737 C 158.57573,277.27955 183.92453,281.9685 196.83777,274.65302 C 208.95011,267.79072 203.01628,251.18296 183.83928,258.61719 C 183.93755,255.86277 183.85579,251.62414 183.6751,247.47491 C 204.59831,238.96616 228.57901,248.33196 219.82894,277.03523 C 214.23688,295.37903 189.9393,300.87338 165.9645,296.26318 C 153.01156,293.77241 137.97574,285.44097 131.2835,276.79066 C 112.24331,252.17836 135.94817,218.8386 163.3014,217.40401 z "
   id="path1936"
   sodipodi:nodetypes="ccssccsssc" />
<path
   style="fill:#600;fill-rule:evenodd;stroke:none"
   clip-rule="evenodd"
   d="M 163.54135,264.22566 C 161.3296,265.33913 158.79376,266.54381 157.76579,268.84201 C 154.43823,267.31248 150.84135,265.15796 149.56292,263.16054 C 150.3025,258.8147 157.73851,254.1133 163.51881,252.30562 L 163.54135,264.22566 z "
   id="path1938"
   sodipodi:nodetypes="ccccc" />
<path
   style="fill:#600;fill-rule:evenodd;stroke:none"
   clip-rule="evenodd"
   d="M 146.45197,292.70714 C 141.02236,332.7665 209.06601,317.43335 220.3518,344.48257 C 214.95925,346.59265 210.56521,339.84056 205.38833,338.78219 C 188.64254,335.35817 170.53056,338.69194 156.22262,332.36928 C 143.03197,326.5397 126.96659,306.50557 136.93084,286.48587 C 139.64779,289.4786 141.57892,290.48585 146.45197,292.70714 z "
   id="path1940"
   sodipodi:nodetypes="ccsccc" />

<path
   style="fill:#300;fill-rule:evenodd;stroke:none"
   clip-rule="evenodd"
   d="M 199.57945,133.93655 C 239.03279,146.78925 216.83205,200.9274 189.61824,209.7245 C 186.17048,210.83902 183.87184,211.96 181.16175,211.94894 C 181.07094,232.75949 181.15789,255.82787 181.39552,274.6957 C 176.75538,275.50358 170.71951,274.13555 166.19827,272.48013 L 165.9645,212.75424 C 133.15887,210.87502 112.10365,201.4422 92.093449,186.29727 C 76.769901,174.69891 63.630546,163.94136 42.927748,158.50796 C 31.371966,155.47475 13.061674,154.56994 8.4421383,144.45946 C 8.2243389,143.98278 7.968467,143.76972 7.968467,142.93219 C 8.0778487,133.39334 156.43365,133.60075 173.3194,133.25972 C 184.88829,133.02607 189.16037,133.53954 199.57945,133.93655 z "
   id="path1942"
   sodipodi:nodetypes="csccccccscsc" />
<path
   style="fill:#300;fill-rule:evenodd;stroke:none"
   clip-rule="evenodd"
   d="M 250.03214,133.77976 C 279.71782,133.77976 341.51336,133.36877 341.48469,142.83194 C 341.48469,143.59905 340.58647,144.34408 340.46674,144.48325 C 333.00514,153.15577 317.96841,153.69676 305.14482,157.08286 C 282.90672,162.9552 265.34042,175.49661 251.07809,188.96659 C 257.44763,175.9851 263.18934,149.07655 250.03214,133.77976 z "
   id="path1944"
   sodipodi:nodetypes="ccsscc" />
<path
   style="fill:#300;fill-rule:evenodd;stroke:none"
   clip-rule="evenodd"
   d="M 166.05352,299.25544 C 172.73056,300.47152 175.11514,300.65594 181.16175,300.72701 C 181.16175,308.80253 181.16175,312.8349 181.16175,320.91042 C 174.68803,320.02117 170.80843,319.18747 166.09802,316.5349 L 166.05352,299.25544 z "
   id="path1946"
   sodipodi:nodetypes="ccccc" />
<path
   style="fill:#300;fill-rule:evenodd;stroke:none"
   clip-rule="evenodd"
   d="M 181.30651,339.70262 C 181.24415,349.07181 181.06605,352.52789 181.87429,358.02095 C 183.44959,368.72711 200.75107,365.14356 212.51379,368.70914 C 215.53879,369.62595 218.24551,372.54074 221.77689,373.69697 C 235.07206,378.05015 258.87009,376.26985 259.01857,384.61894 C 258.90559,392.06366 90.042737,391.82169 89.95581,384.71919 C 89.821497,378.39385 113.27698,378.94321 126.29568,375.12206 C 130.24603,373.96204 133.68241,370.78598 137.69642,369.42169 C 146.76951,366.33779 159.46566,367.51742 164.06063,361.58368 C 165.63825,359.54642 166.26448,356.48547 166.19827,338.45283 C 171.61363,339.4504 175.0285,339.70262 181.30651,339.70262 z "
   id="path1948"
   sodipodi:nodetypes="csssccssscc" />

</svg>